<svg xmlns="http://www.w3.org/2000/svg" xmlns:xlink="http://www.w3.org/1999/xlink" width="840" height="1362.6"><rect width="840" height="1362.6" rx="5" ry="5" class="a"/><svg y="0%" x="0%"><circle cx="20" cy="20" r="6" fill="#ff5f58"/><circle cx="40" cy="20" r="6" fill="#ffbd2e"/><circle cx="60" cy="20" r="6" fill="#18c132"/></svg><svg height="1302.6" viewBox="0 0 80 130.26" width="800" x="15" xmlns="http://www.w3.org/2000/svg" xmlns:xlink="http://www.w3.org/1999/xlink" y="50"><style>@keyframes m{0%{transform:translateX(0)}.9%{transform:translateX(-80px)}54.5%{transform:translateX(-160px)}60.5%{transform:translateX(-400px)}60.6%{transform:translateX(-560px)}94.5%{transform:translateX(-640px)}to{transform:translateX(-720px)}}.a{fill:#282d35}.f,.g,.h{white-space:pre}.f{fill:#a8cc8c;font-weight:700}.g,.h{fill:#b9c0cb}.h{fill:#71bef2;font-weight:700}.i{fill:#b9c0cb}.j{fill:#282d35;white-space:pre}</style><g font-family="Monaco,Consolas,Menlo,'Bitstream Vera Sans Mono','Powerline Symbols',monospace" font-size="1.67"><defs><symbol id="1"><text y="1.67" class="f">razif@LAPTOP-CMO3TVG8</text><text x="21.042" y="1.67" class="g">:</text><text x="22.044" y="1.67" class="h">~/ascii-readme</text><text x="36.072" y="1.67" class="g">$</text></symbol><symbol id="2"><text y="1.67" class="g">razif</text></symbol><symbol id="3"><text y="1.67" class="g">=============*=================+================+=============++++++++</text></symbol><symbol id="4"><text y="1.67" class="g">+++*++++++++********************++++++++++++++++++++++++++++++++++++++</text></symbol><symbol id="5"><text y="1.67" class="g">===+===++++++=+++++++*+======++++++++=++=++++++++++++++*++++++++++++++</text></symbol><symbol id="6"><text y="1.67" class="g">++++++++***+***+****+**+**++=-----===-=+====+++++++++++*++==++++++++++</text></symbol><symbol id="7"><text y="1.67" class="g">=========++++*===++++++=----:::...::::::::::=++++++++++++++++*+*++++++</text></symbol><symbol id="8"><text y="1.67" class="g">===========++*+++++++-:..::....</text><text x="33.066" y="1.67" class="g">...</text><text x="37.074" y="1.67" class="g">.</text><text x="40.08" y="1.67" class="g">.....:--===============+======</text></symbol><symbol id="9"><text y="1.67" class="g">===*=========+++++++-......</text><text x="30.06" y="1.67" class="g">.</text><text x="33.066" y="1.67" class="g">..</text><text x="37.074" y="1.67" class="g">..</text><text x="45.09" y="1.67" class="g">.:-:=+++++*++++++++**+***</text></symbol><symbol id="10"><text y="1.67" class="g">===*+====+++++++++-.</text><text x="21.042" y="1.67" class="g">...</text><text x="29.058" y="1.67" class="g">....</text><text x="34.068" y="1.67" class="g">..</text><text x="38.076" y="1.67" class="g">...</text><text x="45.09" y="1.67" class="g">....:-=++=+==============</text></symbol><symbol id="11"><text y="1.67" class="g">+++++++++********=</text><text x="26.052" y="1.67" class="g">..</text><text x="32.064" y="1.67" class="g">..</text><text x="35.07" y="1.67" class="g">..</text><text x="39.078" y="1.67" class="g">.</text><text x="45.09" y="1.67" class="g">.</text><text x="48.096" y="1.67" class="g">.:=++++++++++++*++++++</text></symbol><symbol id="12"><text y="1.67" class="g">============++==-</text><text x="24.048" y="1.67" class="g">.</text><text x="43.086" y="1.67" class="g">..</text><text x="47.094" y="1.67" class="g">.:==============++++++=</text></symbol><symbol id="13"><text y="1.67" class="g">+++++++++++++**+:</text><text x="19.038" y="1.67" class="g">.</text><text x="40.08" y="1.67" class="g">..:----=+++++++*++++++++++++++</text></symbol><symbol id="14"><text y="1.67" class="g">===+=====++++++-.</text><text x="39.078" y="1.67" class="g">:--=+**========+*==============</text></symbol><symbol id="15"><text y="1.67" class="g">+++*+++++++++++:</text><text x="29.058" y="1.67" class="g">....::::-===+*#%%*++++++++*++++++++++++++</text></symbol><symbol id="16"><text y="1.67" class="g">+===+=+++++++++=</text><text x="27.054" y="1.67" class="g">.:--------+++****+-=++==============++=====</text></symbol><symbol id="17"><text y="1.67" class="g">=====++++++++*++=</text><text x="27.054" y="1.67" class="g">:=++=+===+*###*=-:=+++++++++++++++++*++++++</text></symbol><symbol id="18"><text y="1.67" class="g">+++**+++++**+++++.</text><text x="26.052" y="1.67" class="g">.-+*=:=++=+*##%%#**%%+=======+==============</text></symbol><symbol id="19"><text y="1.67" class="g">---=+==========++-</text><text x="27.054" y="1.67" class="g">:-+*==+++++++*##%%%@%+++++++*++++++++++++++</text></symbol><symbol id="20"><text y="1.67" class="g">++=++++++++++*+++*-</text><text x="27.054" y="1.67" class="g">.::=**+**++++=++*%*+*++++++++++++++++++++++</text></symbol><symbol id="21"><text y="1.67" class="g">=============++===+:</text><text x="27.054" y="1.67" class="g">.:----=**+++++++*#*+++===++++++++===+++++++</text></symbol><symbol id="22"><text y="1.67" class="g">=++++++++++++*******=.</text><text x="27.054" y="1.67" class="g">:-=========+++++++=+++++++++*+++++==+++++++</text></symbol><symbol id="23"><text y="1.67" class="g">==+=+===============+=-.::--====--::--======+==========+=====+++++++++</text></symbol><symbol id="24"><text y="1.67" class="g">--==============++++-..:-==+++===-::::::---=+++++++++++++++++++**+++++</text></symbol><symbol id="25"><text y="1.67" class="g">++++==+++++++*+=+++=.</text><text x="22.044" y="1.67" class="g">...::-==+===--:::-----===++=====+========++==+++</text></symbol><symbol id="26"><text y="1.67" class="g">=============++===+=..........:--=---=++++++++++++++++++++++++++++++++</text></symbol><symbol id="27"><text y="1.67" class="g">++++*+++++++++**+++-.</text><text x="22.044" y="1.67" class="g">..::::...</text><text x="32.064" y="1.67" class="g">.:---=++===============+==============</text></symbol><symbol id="28"><text y="1.67" class="g">==-=*=============:</text><text x="22.044" y="1.67" class="g">.....:::...</text><text x="35.07" y="1.67" class="g">.:--++++++++++++++++++++++++*++++++</text></symbol><symbol id="29"><text y="1.67" class="g">===++====++++++++:......::::.:::::....::=======++==============+======</text></symbol><symbol id="30"><text y="1.67" class="g">=============*+=:</text><text x="18.036" y="1.67" class="g">.....:::::::-=::::....::=====+++=+++++++++++++++++++</text></symbol><symbol id="31"><text y="1.67" class="g">=========+++=**=.....::::::::--==::::::...:-===========+==============</text></symbol><symbol id="32"><text y="1.67" class="g">++++++=========:</text><text x="17.034" y="1.67" class="g">.....::::------+-::.::::::-====++++++++++++++++++++++</text></symbol><symbol id="33"><text y="1.67" class="g">==--==-========..</text><text x="18.036" y="1.67" class="g">....:.:---:-:-==::::::.::-=+++++++==================</text></symbol><symbol id="34"><text y="1.67" class="g">+++++++++++++*=.</text><text x="17.034" y="1.67" class="g">..:...:::------+=:::...:...::==+========+++++++++++++</text></symbol><symbol id="35"><text y="1.67" class="g">==---========+-.....</text><text x="21.042" y="1.67" class="g">..:-====--=++--::........=+++++++====+===========</text></symbol><symbol id="36"><text y="1.67" class="g">========+++++=.::..</text><text x="20.04" y="1.67" class="g">.::------:::::----:........-================++++++</text></symbol><symbol id="37"><text y="1.67" class="g">====+========:.::.</text><text x="19.038" y="1.67" class="g">.:..::----::::....:::::::::..:+++++++++============</text></symbol><symbol id="38"><text y="1.67" class="g">----+====++++:</text><text x="19.038" y="1.67" class="g">......:--::::::....:::.:...::::================++++</text></symbol><symbol id="39"><text y="1.67" class="g">+++=++++++===.</text><text x="19.038" y="1.67" class="g">....</text><text x="24.048" y="1.67" class="g">..::-:::::.........</text><text x="46.092" y="1.67" class="g">.::--=+++*++++++========</text></symbol><symbol id="40"><text y="1.67" class="g">=-----======-</text><text x="14.028" y="1.67" class="g">.</text><text x="18.036" y="1.67" class="g">........::::..:::....</text><text x="41.082" y="1.67" class="g">.</text><text x="47.094" y="1.67" class="g">.:=:===-===============</text></symbol><symbol id="41"><text y="1.67" class="g">============-</text><text x="14.028" y="1.67" class="g">..</text><text x="19.038" y="1.67" class="g">......::::....:::..</text><text x="39.078" y="1.67" class="g">.</text><text x="41.082" y="1.67" class="g">......:::-%%+#*+======+======</text></symbol><symbol id="42"><text y="1.67" class="g">---==:------:</text><text x="14.028" y="1.67" class="g">..</text><text x="20.04" y="1.67" class="g">.....::....:::......</text><text x="41.082" y="1.67" class="g">.........:+@*=+%#=====++===++</text></symbol><symbol id="43"><text y="1.67" class="g">-=-=*+++++++:</text><text x="15.03" y="1.67" class="g">..</text><text x="21.042" y="1.67" class="g">...::....:::::......</text><text x="47.094" y="1.67" class="g">....=%%*+#@%+++++++++++</text></symbol><symbol id="44"><text y="1.67" class="g">------------.</text><text x="14.028" y="1.67" class="g">.</text><text x="16.032" y="1.67" class="g">.</text><text x="19.038" y="1.67" class="g">.......:::........</text><text x="40.08" y="1.67" class="g">.</text><text x="48.096" y="1.67" class="g">..::#@@%%@@#==========</text></symbol><symbol id="45"><text y="1.67" class="g">-------===+=</text><text x="14.028" y="1.67" class="g">.</text><text x="16.032" y="1.67" class="g">...:.......::.......</text><text x="40.08" y="1.67" class="g">..</text><text x="45.09" y="1.67" class="g">.</text><text x="48.096" y="1.67" class="g">.:.-#@@@@@@#++++++++==</text></symbol><symbol id="46"><text y="1.67" class="g">+++++======-</text><text x="14.028" y="1.67" class="g">.</text><text x="17.034" y="1.67" class="g">..:..........::::.::::.</text><text x="41.082" y="1.67" class="g">.........</text><text x="51.102" y="1.67" class="g">-=+*#%@%+====+=====</text></symbol><symbol id="47"><text y="1.67" class="g">--:-=----==:</text><text x="14.028" y="1.67" class="g">.</text><text x="18.036" y="1.67" class="g">..</text><text x="21.042" y="1.67" class="g">.......</text><text x="31.062" y="1.67" class="g">.....:..</text><text x="48.096" y="1.67" class="g">.....:--=##++++++=====</text></symbol><symbol id="48"><text y="1.67" class="g">====+++====.</text><text x="14.028" y="1.67" class="g">.</text><text x="18.036" y="1.67" class="g">..........</text><text x="30.06" y="1.67" class="g">...</text><text x="36.072" y="1.67" class="g">...</text><text x="43.086" y="1.67" class="g">...</text><text x="49.098" y="1.67" class="g">::.</text><text x="53.106" y="1.67" class="g">.:::-::--------==</text></symbol><symbol id="49"><text y="1.67" class="g">-----------.</text><text x="13.026" y="1.67" class="g">..</text><text x="19.038" y="1.67" class="g">.........</text><text x="30.06" y="1.67" class="g">.</text><text x="34.068" y="1.67" class="g">....</text><text x="39.078" y="1.67" class="g">.:...:---:.-..</text><text x="54.108" y="1.67" class="g">.:.:.:+++*++++++</text></symbol><symbol id="50"><text y="1.67" class="g">-===--====-</text><text x="13.026" y="1.67" class="g">..</text><text x="20.04" y="1.67" class="g">.............:::..</text><text x="39.078" y="1.67" class="g">:::-.</text><text x="45.09" y="1.67" class="g">:-::::..:.:...-===+=-----</text></symbol><symbol id="51"><text y="1.67" class="g">===+=-----:</text><text x="14.028" y="1.67" class="g">.</text><text x="20.04" y="1.67" class="g">...........:::.</text><text x="36.072" y="1.67" class="g">.:.:.:-:..--:..</text><text x="53.106" y="1.67" class="g">.::..++=++++===++</text></symbol><symbol id="52"><text y="1.67" class="g">---+=====+:</text><text x="21.042" y="1.67" class="g">.....</text><text x="28.056" y="1.67" class="g">.::::.</text><text x="35.07" y="1.67" class="g">.::::</text><text x="41.082" y="1.67" class="g">:-::.---:.</text><text x="54.108" y="1.67" class="g">...+%+----------</text></symbol><symbol id="53"><text y="1.67" class="g">==-======-.</text><text x="15.03" y="1.67" class="g">.</text><text x="22.044" y="1.67" class="g">......::...</text><text x="34.068" y="1.67" class="g">.:..:..:::::--::.</text><text x="53.106" y="1.67" class="g">...-+*+====++++++</text></symbol><symbol id="54"><text y="1.67" class="g">::::::----.</text><text x="15.03" y="1.67" class="g">.</text><text x="20.04" y="1.67" class="g">.</text><text x="22.044" y="1.67" class="g">..::::..</text><text x="33.066" y="1.67" class="g">.....</text><text x="40.08" y="1.67" class="g">...:-:......</text><text x="54.108" y="1.67" class="g">.=*+=======-----</text></symbol><symbol id="55"><text y="1.67" class="g">=====-====.</text><text x="15.03" y="1.67" class="g">.</text><text x="23.046" y="1.67" class="g">......</text><text x="30.06" y="1.67" class="g">....</text><text x="35.07" y="1.67" class="g">.</text><text x="39.078" y="1.67" class="g">......</text><text x="49.098" y="1.67" class="g">.....:+=--====+====++</text></symbol><symbol id="56"><text y="1.67" class="g">---=------.</text><text x="15.03" y="1.67" class="g">.</text><text x="23.046" y="1.67" class="g">.........</text><text x="38.076" y="1.67" class="g">.</text><text x="50.1" y="1.67" class="g">..</text><text x="54.108" y="1.67" class="g">=+++++++=======-</text></symbol><symbol id="57"><text y="1.67" class="f">razif@LAPTOP-CMO3TVG8</text><text x="21.042" y="1.67" class="g">:</text><text x="22.044" y="1.67" class="h">~/ascii-readme</text><text x="36.072" y="1.67" class="g">$</text><path class="i" d="M38.076 0h42v2.171h-42z"/><text x="38.076" y="1.67" class="j">cat demo.cast | svg-term --out portrait.sv</text></symbol><symbol id="a"><path fill="transparent" d="M0 0h80v61H0z"/></symbol><symbol id="b"><path fill="#6f7683" d="M0 0h1.102v2.171H0z"/></symbol></defs><path class="a" d="M0 0h80v130.26H0z"/><g style="animation-duration:13.14253s;animation-iteration-count:infinite;animation-name:m;animation-timing-function:steps(1,end)"><svg width="800"><svg><use xlink:href="#a"/><use xlink:href="#b" x="-.004"/></svg><svg x="80"><use xlink:href="#a"/><use xlink:href="#b" x="37.996"/><use xlink:href="#1"/></svg><svg x="160"><use xlink:href="#a"/><use xlink:href="#b" x="50.996"/><text y="1.67" class="f">razif@LAPTOP-CMO3TVG8</text><text x="21.042" y="1.67" class="g">:</text><text x="22.044" y="1.67" class="h">~/ascii-readme</text><text x="36.072" y="1.67" class="g">$</text><path class="i" d="M38.076 0h13v2.171h-13z"/><text x="38.076" y="1.67" class="j">./portrait.sh</text></svg><svg x="240"><use xlink:href="#a"/><use xlink:href="#b" x="-.004" y="2.146"/><text y="1.67" class="f">razif@LAPTOP-CMO3TVG8</text><text x="21.042" y="1.67" class="g">:</text><text x="22.044" y="1.67" class="h">~/ascii-readme</text><text x="36.072" y="1.67" class="g">$</text><text x="38.076" y="1.67" class="g">./portrait.sh</text></svg><svg x="320"><use xlink:href="#a"/><use xlink:href="#b" x="-.004"/></svg><svg x="400"><use xlink:href="#a"/><use xlink:href="#b" x="-.004" y="2.146"/><use xlink:href="#2"/></svg><svg x="480"><use xlink:href="#a"/><use xlink:href="#b" x="-.004" y="119.38"/><use xlink:href="#2"/><use xlink:href="#3" y="2.171"/><use xlink:href="#4" y="4.342"/><use xlink:href="#5" y="6.513"/><use xlink:href="#6" y="8.684"/><use xlink:href="#7" y="10.855"/><use xlink:href="#8" y="13.026"/><use xlink:href="#9" y="15.197"/><use xlink:href="#10" y="17.368"/><use xlink:href="#11" y="19.539"/><use xlink:href="#12" y="21.71"/><use xlink:href="#13" y="23.881"/><use xlink:href="#14" y="26.052"/><use xlink:href="#15" y="28.223"/><use xlink:href="#16" y="30.394"/><use xlink:href="#17" y="32.565"/><use xlink:href="#18" y="34.736"/><use xlink:href="#19" y="36.907"/><use xlink:href="#20" y="39.078"/><use xlink:href="#21" y="41.249"/><use xlink:href="#22" y="43.42"/><use xlink:href="#23" y="45.591"/><use xlink:href="#24" y="47.762"/><use xlink:href="#25" y="49.933"/><use xlink:href="#26" y="52.104"/><use xlink:href="#27" y="54.275"/><use xlink:href="#28" y="56.446"/><use xlink:href="#29" y="58.617"/><use xlink:href="#30" y="60.788"/><use xlink:href="#31" y="62.959"/><use xlink:href="#32" y="65.13"/><use xlink:href="#33" y="67.301"/><use xlink:href="#34" y="69.472"/><use xlink:href="#35" y="71.643"/><use xlink:href="#36" y="73.814"/><use xlink:href="#37" y="75.985"/><use xlink:href="#38" y="78.156"/><use xlink:href="#39" y="80.327"/><use xlink:href="#40" y="82.498"/><use xlink:href="#41" y="84.669"/><use xlink:href="#42" y="86.84"/><use xlink:href="#43" y="89.011"/><use xlink:href="#44" y="91.182"/><use xlink:href="#45" y="93.353"/><use xlink:href="#46" y="95.524"/><use xlink:href="#47" y="97.695"/><use xlink:href="#48" y="99.866"/><use xlink:href="#49" y="102.037"/><use xlink:href="#50" y="104.208"/><use xlink:href="#51" y="106.379"/><use xlink:href="#52" y="108.55"/><use xlink:href="#53" y="110.721"/><use xlink:href="#54" y="112.892"/><use xlink:href="#55" y="115.063"/><use xlink:href="#56" y="117.234"/></svg><svg x="560"><use xlink:href="#a"/><use xlink:href="#b" x="37.996" y="119.38"/><use xlink:href="#2"/><use xlink:href="#3" y="2.171"/><use xlink:href="#4" y="4.342"/><use xlink:href="#5" y="6.513"/><use xlink:href="#6" y="8.684"/><use xlink:href="#7" y="10.855"/><use xlink:href="#8" y="13.026"/><use xlink:href="#9" y="15.197"/><use xlink:href="#10" y="17.368"/><use xlink:href="#11" y="19.539"/><use xlink:href="#12" y="21.71"/><use xlink:href="#13" y="23.881"/><use xlink:href="#14" y="26.052"/><use xlink:href="#15" y="28.223"/><use xlink:href="#16" y="30.394"/><use xlink:href="#17" y="32.565"/><use xlink:href="#18" y="34.736"/><use xlink:href="#19" y="36.907"/><use xlink:href="#20" y="39.078"/><use xlink:href="#21" y="41.249"/><use xlink:href="#22" y="43.42"/><use xlink:href="#23" y="45.591"/><use xlink:href="#24" y="47.762"/><use xlink:href="#25" y="49.933"/><use xlink:href="#26" y="52.104"/><use xlink:href="#27" y="54.275"/><use xlink:href="#28" y="56.446"/><use xlink:href="#29" y="58.617"/><use xlink:href="#30" y="60.788"/><use xlink:href="#31" y="62.959"/><use xlink:href="#32" y="65.13"/><use xlink:href="#33" y="67.301"/><use xlink:href="#34" y="69.472"/><use xlink:href="#35" y="71.643"/><use xlink:href="#36" y="73.814"/><use xlink:href="#37" y="75.985"/><use xlink:href="#38" y="78.156"/><use xlink:href="#39" y="80.327"/><use xlink:href="#40" y="82.498"/><use xlink:href="#41" y="84.669"/><use xlink:href="#42" y="86.84"/><use xlink:href="#43" y="89.011"/><use xlink:href="#44" y="91.182"/><use xlink:href="#45" y="93.353"/><use xlink:href="#46" y="95.524"/><use xlink:href="#47" y="97.695"/><use xlink:href="#48" y="99.866"/><use xlink:href="#49" y="102.037"/><use xlink:href="#50" y="104.208"/><use xlink:href="#51" y="106.379"/><use xlink:href="#52" y="108.55"/><use xlink:href="#53" y="110.721"/><use xlink:href="#54" y="112.892"/><use xlink:href="#55" y="115.063"/><use xlink:href="#56" y="117.234"/><use xlink:href="#1" y="119.405"/></svg><svg x="640"><use xlink:href="#a"/><use xlink:href="#b" x="32.996" y="121.551"/><use xlink:href="#2"/><use xlink:href="#3" y="2.171"/><use xlink:href="#4" y="4.342"/><use xlink:href="#5" y="6.513"/><use xlink:href="#6" y="8.684"/><use xlink:href="#7" y="10.855"/><use xlink:href="#8" y="13.026"/><use xlink:href="#9" y="15.197"/><use xlink:href="#10" y="17.368"/><use xlink:href="#11" y="19.539"/><use xlink:href="#12" y="21.71"/><use xlink:href="#13" y="23.881"/><use xlink:href="#14" y="26.052"/><use xlink:href="#15" y="28.223"/><use xlink:href="#16" y="30.394"/><use xlink:href="#17" y="32.565"/><use xlink:href="#18" y="34.736"/><use xlink:href="#19" y="36.907"/><use xlink:href="#20" y="39.078"/><use xlink:href="#21" y="41.249"/><use xlink:href="#22" y="43.42"/><use xlink:href="#23" y="45.591"/><use xlink:href="#24" y="47.762"/><use xlink:href="#25" y="49.933"/><use xlink:href="#26" y="52.104"/><use xlink:href="#27" y="54.275"/><use xlink:href="#28" y="56.446"/><use xlink:href="#29" y="58.617"/><use xlink:href="#30" y="60.788"/><use xlink:href="#31" y="62.959"/><use xlink:href="#32" y="65.13"/><use xlink:href="#33" y="67.301"/><use xlink:href="#34" y="69.472"/><use xlink:href="#35" y="71.643"/><use xlink:href="#36" y="73.814"/><use xlink:href="#37" y="75.985"/><use xlink:href="#38" y="78.156"/><use xlink:href="#39" y="80.327"/><use xlink:href="#40" y="82.498"/><use xlink:href="#41" y="84.669"/><use xlink:href="#42" y="86.84"/><use xlink:href="#43" y="89.011"/><use xlink:href="#44" y="91.182"/><use xlink:href="#45" y="93.353"/><use xlink:href="#46" y="95.524"/><use xlink:href="#47" y="97.695"/><use xlink:href="#48" y="99.866"/><use xlink:href="#49" y="102.037"/><use xlink:href="#50" y="104.208"/><use xlink:href="#51" y="106.379"/><use xlink:href="#52" y="108.55"/><use xlink:href="#53" y="110.721"/><use xlink:href="#54" y="112.892"/><use xlink:href="#55" y="115.063"/><use xlink:href="#56" y="117.234"/><use xlink:href="#57" y="119.405"/><path class="i" d="M0 121.576h33v2.171H0z"/><text y="123.246" class="j">g --window --width 80 --height 60</text></svg><svg x="720"><use xlink:href="#a"/><use xlink:href="#b" x="-.004" y="125.893"/><use xlink:href="#2"/><use xlink:href="#3" y="2.171"/><use xlink:href="#4" y="4.342"/><use xlink:href="#5" y="6.513"/><use xlink:href="#6" y="8.684"/><use xlink:href="#7" y="10.855"/><use xlink:href="#8" y="13.026"/><use xlink:href="#9" y="15.197"/><use xlink:href="#10" y="17.368"/><use xlink:href="#11" y="19.539"/><use xlink:href="#12" y="21.71"/><use xlink:href="#13" y="23.881"/><use xlink:href="#14" y="26.052"/><use xlink:href="#15" y="28.223"/><use xlink:href="#16" y="30.394"/><use xlink:href="#17" y="32.565"/><use xlink:href="#18" y="34.736"/><use xlink:href="#19" y="36.907"/><use xlink:href="#20" y="39.078"/><use xlink:href="#21" y="41.249"/><use xlink:href="#22" y="43.42"/><use xlink:href="#23" y="45.591"/><use xlink:href="#24" y="47.762"/><use xlink:href="#25" y="49.933"/><use xlink:href="#26" y="52.104"/><use xlink:href="#27" y="54.275"/><use xlink:href="#28" y="56.446"/><use xlink:href="#29" y="58.617"/><use xlink:href="#30" y="60.788"/><use xlink:href="#31" y="62.959"/><use xlink:href="#32" y="65.13"/><use xlink:href="#33" y="67.301"/><use xlink:href="#34" y="69.472"/><use xlink:href="#35" y="71.643"/><use xlink:href="#36" y="73.814"/><use xlink:href="#37" y="75.985"/><use xlink:href="#38" y="78.156"/><use xlink:href="#39" y="80.327"/><use xlink:href="#40" y="82.498"/><use xlink:href="#41" y="84.669"/><use xlink:href="#42" y="86.84"/><use xlink:href="#43" y="89.011"/><use xlink:href="#44" y="91.182"/><use xlink:href="#45" y="93.353"/><use xlink:href="#46" y="95.524"/><use xlink:href="#47" y="97.695"/><use xlink:href="#48" y="99.866"/><use xlink:href="#49" y="102.037"/><use xlink:href="#50" y="104.208"/><use xlink:href="#51" y="106.379"/><use xlink:href="#52" y="108.55"/><use xlink:href="#53" y="110.721"/><use xlink:href="#54" y="112.892"/><use xlink:href="#55" y="115.063"/><use xlink:href="#56" y="117.234"/><use xlink:href="#57" y="119.405"/><path class="i" d="M0 121.576h33v2.171H0z"/><text y="123.246" class="j">g --window --width 80 --height 60</text><text x="38.076" y="123.246" class="g">cat</text><text x="42.084" y="123.246" class="g">demo.cast</text><text x="52.104" y="123.246" class="g">|</text><text x="54.108" y="123.246" class="g">svg-term</text><text x="63.126" y="123.246" class="g">--out</text><text x="69.138" y="123.246" class="g">portrait.sv</text><text y="125.417" class="g">g</text><text x="2.004" y="125.417" class="g">--window</text><text x="11.022" y="125.417" class="g">--width</text><text x="19.038" y="125.417" class="g">80</text><text x="22.044" y="125.417" class="g">--height</text><text x="31.062" y="125.417" class="g">60</text></svg></svg></g></g></svg></svg>